<?xml version="1.0" encoding="UTF-8"?>
<svg version="1.1" xmlns="http://www.w3.org/2000/svg" width="447" height="559">
<path d="M0 0 C1.73431274 0.00616333 1.73431274 0.00616333 3.50366211 0.01245117 C4.75598633 0.01438477 6.00831055 0.01631836 7.29858398 0.01831055 C9.26988281 0.03667969 9.26988281 0.03667969 11.28100586 0.05541992 C12.59907227 0.05606445 13.91713867 0.05670898 15.27514648 0.05737305 C25.07841463 0.1028287 25.07841463 0.1028287 26.21850586 1.24291992 C26.30626191 3.38850819 26.32545805 5.53696413 26.31616211 7.68432617 C26.31293945 8.98950195 26.3097168 10.29467773 26.30639648 11.6394043 C26.29803987 13.02807682 26.28957491 14.41674869 26.28100586 15.80541992 C26.27599252 17.19799648 26.27142932 18.59057474 26.26733398 19.9831543 C26.2555002 23.40311862 26.23901466 26.82299836 26.21850586 30.24291992 C20.60848336 31.65710303 15.41503037 32.5174316 9.59350586 32.49291992 C8.36374023 32.49807617 7.13397461 32.50323242 5.86694336 32.50854492 C1.98608011 32.22599813 -1.09659131 31.43648742 -4.78149414 30.24291992 C-4.83089076 26.29195014 -4.86721169 22.34109963 -4.89135742 18.38989258 C-4.90637521 16.38380632 -4.93178395 14.37780668 -4.95727539 12.37182617 C-4.96694336 10.48657227 -4.96694336 10.48657227 -4.97680664 8.56323242 C-4.98728027 7.40065918 -4.99775391 6.23808594 -5.00854492 5.0402832 C-4.69479945 1.17480399 -3.86355407 0.3374209 0 0 Z " fill="#4C9EDD" transform="translate(120.781494140625,298.757080078125)"/>
<path d="M0 0 C1.19496094 -0.00386719 1.19496094 -0.00386719 2.4140625 -0.0078125 C3.24679688 -0.00007813 4.07953125 0.00765625 4.9375 0.015625 C5.77023438 0.00789063 6.60296875 0.00015625 7.4609375 -0.0078125 C8.25757813 -0.00523437 9.05421875 -0.00265625 9.875 0 C10.60589844 0.00225586 11.33679688 0.00451172 12.08984375 0.00683594 C13.9375 0.265625 13.9375 0.265625 15.9375 2.265625 C16.19628906 4.11328125 16.19628906 4.11328125 16.203125 6.328125 C16.20699219 7.52308594 16.20699219 7.52308594 16.2109375 8.7421875 C16.20320313 9.57492187 16.19546875 10.40765625 16.1875 11.265625 C16.19523437 12.09835937 16.20296875 12.93109375 16.2109375 13.7890625 C16.20835937 14.58570313 16.20578125 15.38234375 16.203125 16.203125 C16.20086914 16.93402344 16.19861328 17.66492188 16.19628906 18.41796875 C15.9375 20.265625 15.9375 20.265625 13.9375 22.265625 C12.08984375 22.52441406 12.08984375 22.52441406 9.875 22.53125 C8.68003906 22.53511719 8.68003906 22.53511719 7.4609375 22.5390625 C6.62820312 22.53132813 5.79546875 22.52359375 4.9375 22.515625 C4.10476562 22.52335937 3.27203125 22.53109375 2.4140625 22.5390625 C1.61742188 22.53648437 0.82078125 22.53390625 0 22.53125 C-0.73089844 22.52899414 -1.46179688 22.52673828 -2.21484375 22.52441406 C-4.0625 22.265625 -4.0625 22.265625 -6.0625 20.265625 C-6.32128906 18.41796875 -6.32128906 18.41796875 -6.328125 16.203125 C-6.33070312 15.40648437 -6.33328125 14.60984375 -6.3359375 13.7890625 C-6.32820313 12.95632813 -6.32046875 12.12359375 -6.3125 11.265625 C-6.32023437 10.43289063 -6.32796875 9.60015625 -6.3359375 8.7421875 C-6.33335938 7.94554687 -6.33078125 7.14890625 -6.328125 6.328125 C-6.32586914 5.59722656 -6.32361328 4.86632812 -6.32128906 4.11328125 C-5.77263541 0.19610124 -3.39292545 0.01047199 0 0 Z " fill="#3CA1F0" transform="translate(126.0625,303.734375)"/>
<path d="M0 0 C3.96930989 -0.02465881 7.93859034 -0.04284023 11.90795898 -0.05493164 C13.25920386 -0.05997057 14.61044326 -0.06680177 15.96166992 -0.07543945 C17.90020434 -0.08752419 19.838778 -0.09269828 21.77734375 -0.09765625 C23.52905884 -0.10551147 23.52905884 -0.10551147 25.31616211 -0.11352539 C28 0 28 0 29 1 C29.08775605 3.14558827 29.10695219 5.29404421 29.09765625 7.44140625 C29.09443359 8.74658203 29.09121094 10.05175781 29.08789062 11.39648438 C29.07953401 12.7851569 29.07106905 14.17382877 29.0625 15.5625 C29.05748666 16.95507656 29.05292347 18.34765481 29.04882812 19.74023438 C29.03699434 23.1601987 29.0205088 26.58007844 29 30 C23.3899775 31.41418311 18.19652451 32.27451168 12.375 32.25 C11.14523438 32.25515625 9.91546875 32.2603125 8.6484375 32.265625 C5 32 5 32 -2 30 C-2 20.76 -2 11.52 -2 2 C-1.67 2 -1.34 2 -1 2 C-0.67 9.92 -0.34 17.84 0 26 C3.568125 26 7.13625 26 10.8125 26 C15.54166667 26 20.27083333 26 25 26 C24.67 26.99 24.34 27.98 24 29 C24.66 28.67 25.32 28.34 26 28 C26.33 19.09 26.66 10.18 27 1 C18.09 1 9.18 1 0 1 C0 0.67 0 0.34 0 0 Z " fill="#87C4EF" transform="translate(118,299)"/>
<path d="M0 0 C1.19496094 -0.00386719 1.19496094 -0.00386719 2.4140625 -0.0078125 C3.24679688 -0.00007813 4.07953125 0.00765625 4.9375 0.015625 C5.77023438 0.00789063 6.60296875 0.00015625 7.4609375 -0.0078125 C8.25757813 -0.00523437 9.05421875 -0.00265625 9.875 0 C10.60589844 0.00225586 11.33679688 0.00451172 12.08984375 0.00683594 C13.9375 0.265625 13.9375 0.265625 15.9375 2.265625 C16.19628906 4.11328125 16.19628906 4.11328125 16.203125 6.328125 C16.20699219 7.52308594 16.20699219 7.52308594 16.2109375 8.7421875 C16.20320313 9.57492187 16.19546875 10.40765625 16.1875 11.265625 C16.19523437 12.09835937 16.20296875 12.93109375 16.2109375 13.7890625 C16.20835937 14.58570313 16.20578125 15.38234375 16.203125 16.203125 C16.20086914 16.93402344 16.19861328 17.66492188 16.19628906 18.41796875 C15.9375 20.265625 15.9375 20.265625 13.9375 22.265625 C12.08984375 22.52441406 12.08984375 22.52441406 9.875 22.53125 C8.68003906 22.53511719 8.68003906 22.53511719 7.4609375 22.5390625 C6.62820312 22.53132813 5.79546875 22.52359375 4.9375 22.515625 C4.10476562 22.52335937 3.27203125 22.53109375 2.4140625 22.5390625 C1.61742188 22.53648437 0.82078125 22.53390625 0 22.53125 C-0.73089844 22.52899414 -1.46179688 22.52673828 -2.21484375 22.52441406 C-4.0625 22.265625 -4.0625 22.265625 -6.0625 20.265625 C-6.32128906 18.41796875 -6.32128906 18.41796875 -6.328125 16.203125 C-6.33070312 15.40648437 -6.33328125 14.60984375 -6.3359375 13.7890625 C-6.32820313 12.95632813 -6.32046875 12.12359375 -6.3125 11.265625 C-6.32023437 10.43289063 -6.32796875 9.60015625 -6.3359375 8.7421875 C-6.33335938 7.94554687 -6.33078125 7.14890625 -6.328125 6.328125 C-6.32586914 5.59722656 -6.32361328 4.86632812 -6.32128906 4.11328125 C-5.77263541 0.19610124 -3.39292545 0.01047199 0 0 Z M-4.0625 1.265625 C-5.64227708 4.42517917 -5.24697084 7.80026317 -5.25 11.265625 C-5.26224609 12.00296875 -5.27449219 12.7403125 -5.28710938 13.5 C-5.29237395 15.42332558 -5.18453447 17.34616763 -5.0625 19.265625 C-2.50301001 21.82511499 -0.79042805 21.52631231 2.703125 21.5390625 C3.44046875 21.53132813 4.1778125 21.52359375 4.9375 21.515625 C5.67484375 21.52335937 6.4121875 21.53109375 7.171875 21.5390625 C11.52171903 21.67571365 11.52171903 21.67571365 14.9375 19.265625 C15.08257695 16.52076907 15.12402423 13.88081957 15.0625 11.140625 C15.05347656 10.38652344 15.04445312 9.63242187 15.03515625 8.85546875 C15.0115687 6.99205246 14.97569719 5.12879907 14.9375 3.265625 C13.9475 3.760625 13.9475 3.760625 12.9375 4.265625 C12.9375 4.925625 12.9375 5.585625 12.9375 6.265625 C11.6175 6.265625 10.2975 6.265625 8.9375 6.265625 C8.9375 9.235625 8.9375 12.205625 8.9375 15.265625 C6.60455225 15.30804223 4.27047433 15.30655437 1.9375 15.265625 C0.9375 14.265625 0.9375 14.265625 0.83984375 12.41796875 C0.87239583 10.3671875 0.90494792 8.31640625 0.9375 6.265625 C1.55238281 6.23984375 2.16726562 6.2140625 2.80078125 6.1875 C3.60902344 6.13078125 4.41726562 6.0740625 5.25 6.015625 C6.05050781 5.96921875 6.85101563 5.9228125 7.67578125 5.875 C10.50790227 5.36114728 10.50790227 5.36114728 12.9375 1.265625 C7.3275 1.265625 1.7175 1.265625 -4.0625 1.265625 Z " fill="#1C5F9A" transform="translate(126.0625,303.734375)"/>
<path d="M0 0 C5.61 0 11.22 0 17 0 C14 4 14 4 11.73828125 4.609375 C10.53751953 4.67898438 10.53751953 4.67898438 9.3125 4.75 C8.50425781 4.80671875 7.69601563 4.8634375 6.86328125 4.921875 C5.94095703 4.96054687 5.94095703 4.96054687 5 5 C4.67 5.99 4.34 6.98 4 8 C3.67 7.34 3.34 6.68 3 6 C3.66 5.01 4.32 4.02 5 3 C8.125 2.8125 8.125 2.8125 11 3 C11 2.34 11 1.68 11 1 C7.7 1.66 4.4 2.32 1 3 C1 7.95 1 12.9 1 18 C6.28 18 11.56 18 17 18 C17 13.05 17 8.1 17 3 C17.66 2.67 18.32 2.34 19 2 C19.05382106 4.62527189 19.09358313 7.24944713 19.125 9.875 C19.14175781 10.62136719 19.15851563 11.36773437 19.17578125 12.13671875 C19.1933959 14.09194461 19.10320189 16.04742021 19 18 C16.44051001 20.55948999 14.72792805 20.26068731 11.234375 20.2734375 C10.49703125 20.26570313 9.7596875 20.25796875 9 20.25 C8.26265625 20.25773437 7.5253125 20.26546875 6.765625 20.2734375 C1.2533196 20.2533196 1.2533196 20.2533196 -1 18 C-1.1720611 15.29368306 -1.23239017 12.7028606 -1.1875 10 C-1.18685547 9.26265625 -1.18621094 8.5253125 -1.18554688 7.765625 C-1.14050904 2.28101809 -1.14050904 2.28101809 0 0 Z " fill="#499CDB" transform="translate(122,305)"/>
<path d="M0 0 C8.25 0 16.5 0 25 0 C25 8.58 25 17.16 25 26 C24.01 26.33 23.02 26.66 22 27 C21.97494385 26.34926514 21.9498877 25.69853027 21.92407227 25.02807617 C21.80806298 22.08101954 21.68535885 19.1342787 21.5625 16.1875 C21.52318359 15.16333984 21.48386719 14.13917969 21.44335938 13.08398438 C21.40146484 12.10107422 21.35957031 11.11816406 21.31640625 10.10546875 C21.27974854 9.19949951 21.24309082 8.29353027 21.20532227 7.36010742 C21.0791795 4.84951218 21.0791795 4.84951218 20 2 C13.4 2 6.8 2 0 2 C0 1.34 0 0.68 0 0 Z " fill="#3CA1F0" transform="translate(120,301)"/>
<path d="M0 0 C1.19496094 -0.00386719 1.19496094 -0.00386719 2.4140625 -0.0078125 C3.24679688 -0.00007813 4.07953125 0.00765625 4.9375 0.015625 C5.77023438 0.00789063 6.60296875 0.00015625 7.4609375 -0.0078125 C8.25757813 -0.00523437 9.05421875 -0.00265625 9.875 0 C10.60589844 0.00225586 11.33679688 0.00451172 12.08984375 0.00683594 C13.9375 0.265625 13.9375 0.265625 15.9375 2.265625 C16.19628906 4.11328125 16.19628906 4.11328125 16.203125 6.328125 C16.20699219 7.52308594 16.20699219 7.52308594 16.2109375 8.7421875 C16.20320313 9.57492187 16.19546875 10.40765625 16.1875 11.265625 C16.19523437 12.09835937 16.20296875 12.93109375 16.2109375 13.7890625 C16.20835937 14.58570313 16.20578125 15.38234375 16.203125 16.203125 C16.20086914 16.93402344 16.19861328 17.66492188 16.19628906 18.41796875 C15.9375 20.265625 15.9375 20.265625 13.9375 22.265625 C12.08984375 22.52441406 12.08984375 22.52441406 9.875 22.53125 C8.68003906 22.53511719 8.68003906 22.53511719 7.4609375 22.5390625 C6.62820312 22.53132813 5.79546875 22.52359375 4.9375 22.515625 C4.10476562 22.52335937 3.27203125 22.53109375 2.4140625 22.5390625 C1.61742188 22.53648437 0.82078125 22.53390625 0 22.53125 C-0.73089844 22.52899414 -1.46179688 22.52673828 -2.21484375 22.52441406 C-4.0625 22.265625 -4.0625 22.265625 -6.0625 20.265625 C-6.32128906 18.41796875 -6.32128906 18.41796875 -6.328125 16.203125 C-6.33070312 15.40648437 -6.33328125 14.60984375 -6.3359375 13.7890625 C-6.32820313 12.95632813 -6.32046875 12.12359375 -6.3125 11.265625 C-6.32023437 10.43289063 -6.32796875 9.60015625 -6.3359375 8.7421875 C-6.33335938 7.94554687 -6.33078125 7.14890625 -6.328125 6.328125 C-6.32586914 5.59722656 -6.32361328 4.86632812 -6.32128906 4.11328125 C-5.77263541 0.19610124 -3.39292545 0.01047199 0 0 Z M-4.0625 1.265625 C-5.64227708 4.42517917 -5.24697084 7.80026317 -5.25 11.265625 C-5.26224609 12.00296875 -5.27449219 12.7403125 -5.28710938 13.5 C-5.29237395 15.42332558 -5.18453447 17.34616763 -5.0625 19.265625 C-2.50301001 21.82511499 -0.79042805 21.52631231 2.703125 21.5390625 C3.44046875 21.53132813 4.1778125 21.52359375 4.9375 21.515625 C5.67484375 21.52335937 6.4121875 21.53109375 7.171875 21.5390625 C11.52171903 21.67571365 11.52171903 21.67571365 14.9375 19.265625 C15.08257695 16.52076907 15.12402423 13.88081957 15.0625 11.140625 C15.05347656 10.38652344 15.04445312 9.63242187 15.03515625 8.85546875 C15.0115687 6.99205246 14.97569719 5.12879907 14.9375 3.265625 C13.2875 3.925625 11.6375 4.585625 9.9375 5.265625 C10.9275 3.945625 11.9175 2.625625 12.9375 1.265625 C7.3275 1.265625 1.7175 1.265625 -4.0625 1.265625 Z " fill="#01326A" transform="translate(126.0625,303.734375)"/>
<path d="M0 0 C0.33 0.66 0.66 1.32 1 2 C7.6 2 14.2 2 21 2 C21 2.33 21 2.66 21 3 C19.06833984 3.09087891 19.06833984 3.09087891 17.09765625 3.18359375 C15.41925841 3.26798247 13.74087364 3.3526313 12.0625 3.4375 C10.78729492 3.49647461 10.78729492 3.49647461 9.48632812 3.55664062 C8.67744141 3.59853516 7.86855469 3.64042969 7.03515625 3.68359375 C6.2862915 3.72025146 5.53742676 3.75690918 4.76586914 3.79467773 C2.97538674 3.81771063 2.97538674 3.81771063 2 5 C1.76321284 7.69235776 1.57801975 10.36498156 1.4375 13.0625 C1.39431641 13.82111328 1.35113281 14.57972656 1.30664062 15.36132812 C1.20026367 17.24065438 1.09960066 19.12030244 1 21 C0.67 21 0.34 21 0 21 C-0.19645093 17.87549468 -0.38063489 14.75038555 -0.5625 11.625 C-0.61857422 10.73554688 -0.67464844 9.84609375 -0.73242188 8.9296875 C-0.78076172 8.07890625 -0.82910156 7.228125 -0.87890625 6.3515625 C-0.9260376 5.56604004 -0.97316895 4.78051758 -1.02172852 3.97119141 C-1 2 -1 2 0 0 Z " fill="#3B96DE" transform="translate(119,301)"/>
<path d="M0 0 C1.32 0.33 2.64 0.66 4 1 C4.1875 3.375 4.1875 3.375 4 6 C1 8 1 8 -1.1875 7.625 C-1.785625 7.41875 -2.38375 7.2125 -3 7 C-3 5.35 -3 3.7 -3 2 C-1.68 2.33 -0.36 2.66 1 3 C0.67 2.01 0.34 1.02 0 0 Z " fill="#429DE0" transform="translate(130,310)"/>
<path d="M0 0 C2.95887459 -0.08069658 5.9155659 -0.14034665 8.875 -0.1875 C9.71675781 -0.21263672 10.55851563 -0.23777344 11.42578125 -0.26367188 C12.23144531 -0.27333984 13.03710938 -0.28300781 13.8671875 -0.29296875 C14.98262939 -0.31653442 14.98262939 -0.31653442 16.12060547 -0.34057617 C17.05090576 -0.17199097 17.05090576 -0.17199097 18 0 C18.66 0.99 19.32 1.98 20 3 C17 5 17 5 14 5 C14.33 4.01 14.66 3.02 15 2 C10.05 1.67 5.1 1.34 0 1 C0 0.67 0 0.34 0 0 Z " fill="#0A4A84" transform="translate(122,304)"/>
<path d="M0 0 C0.309375 0.639375 0.61875 1.27875 0.9375 1.9375 C1.8345163 3.93610821 1.8345163 3.93610821 3 5 C5.33297433 5.04092937 7.66705225 5.04241723 10 5 C10 5.66 10 6.32 10 7 C8.52168779 7.19412181 7.04230684 7.38012131 5.5625 7.5625 C4.73878906 7.66691406 3.91507813 7.77132813 3.06640625 7.87890625 C2.38449219 7.91886719 1.70257813 7.95882813 1 8 C0 7 0 7 -0.0625 3.4375 C-0.041875 2.303125 -0.02125 1.16875 0 0 Z " fill="#3B9DE6" transform="translate(125,314)"/>
</svg>
